<svg width="33" height="32" viewBox="0 0 33 32" fill="none" xmlns="http://www.w3.org/2000/svg">
<rect x="0.5" width="32" height="32" rx="3" fill="white"/>
<path d="M7.97164 6.22003C7.97164 6.68771 7.93097 7.09439 7.84964 7.44007H6.32459C6.24326 7.09439 6.20259 6.68771 6.20259 6.22003C6.20259 5.73202 6.24326 5.32534 6.32459 5H7.84964C7.93097 5.32534 7.97164 5.73202 7.97164 6.22003ZM6.32459 22.0805C6.40593 22.4058 6.4466 22.8125 6.4466 23.3005C6.4466 23.7682 6.40593 24.1749 6.32459 24.5205H4.79955C4.71821 24.1749 4.67755 23.7682 4.67755 23.3005C4.67755 22.8125 4.71821 22.4058 4.79955 22.0805H4.03703C3.95569 21.7348 3.91503 21.3281 3.91503 20.8604C3.91503 20.3724 3.95569 19.9658 4.03703 19.6404H3.122C3.04067 19.2947 3 18.8881 3 18.4204C3 17.9324 3.04067 17.5257 3.122 17.2003C3.04067 16.8547 3 16.448 3 15.9803C3 15.4923 3.04067 15.0856 3.122 14.7603C3.04067 14.4146 3 14.0079 3 13.5402C3 13.0522 3.04067 12.6455 3.122 12.3202H4.03703C3.95569 11.9745 3.91503 11.5679 3.91503 11.1002C3.91503 10.6122 3.95569 10.2055 4.03703 9.88014H4.79955C4.71821 9.53446 4.67755 9.12778 4.67755 8.6601C4.67755 8.17209 4.71821 7.76541 4.79955 7.44007H6.32459C6.40593 7.76541 6.4466 8.17209 6.4466 8.6601C6.4466 9.12778 6.40593 9.53446 6.32459 9.88014H5.56207C5.64341 10.2055 5.68408 10.6122 5.68408 11.1002C5.68408 11.5679 5.64341 11.9745 5.56207 12.3202C5.64341 12.6455 5.68408 13.0522 5.68408 13.5402C5.68408 14.0079 5.64341 14.4146 5.56207 14.7603C5.64341 15.0856 5.68408 15.4923 5.68408 15.9803C5.68408 16.448 5.64341 16.8547 5.56207 17.2003C5.64341 17.5257 5.68408 17.9324 5.68408 18.4204C5.68408 18.8881 5.64341 19.2947 5.56207 19.6404C5.64341 19.9658 5.68408 20.3724 5.68408 20.8604C5.68408 21.3281 5.64341 21.7348 5.56207 22.0805H6.32459ZM7.84964 24.5205C7.93097 24.8459 7.97164 25.2526 7.97164 25.7406C7.97164 26.2083 7.93097 26.6149 7.84964 26.9606H6.32459C6.24326 26.6149 6.20259 26.2083 6.20259 25.7406C6.20259 25.2526 6.24326 24.8459 6.32459 24.5205H7.84964Z" fill="#121317"/>
<path d="M27.0652 5C27.1465 5.32534 27.1872 5.73202 27.1872 6.22003C27.1872 6.68771 27.1465 7.09439 27.0652 7.44007H25.5402C25.4588 7.09439 25.4182 6.68771 25.4182 6.22003C25.4182 5.73202 25.4588 5.32534 25.5402 5H27.0652ZM30.2678 14.7603C30.3491 15.0856 30.3898 15.4923 30.3898 15.9803C30.3898 16.448 30.3491 16.8547 30.2678 17.2003C30.3491 17.5257 30.3898 17.9324 30.3898 18.4204C30.3898 18.8881 30.3491 19.2947 30.2678 19.6404H29.3528C29.4341 19.9658 29.4748 20.3724 29.4748 20.8604C29.4748 21.3281 29.4341 21.7348 29.3528 22.0805H28.5902C28.6716 22.4058 28.7122 22.8125 28.7122 23.3005C28.7122 23.7682 28.6716 24.1749 28.5902 24.5205H27.0652C26.9839 24.1749 26.9432 23.7682 26.9432 23.3005C26.9432 22.8125 26.9839 22.4058 27.0652 22.0805H27.8277C27.7464 21.7348 27.7057 21.3281 27.7057 20.8604C27.7057 20.3724 27.7464 19.9658 27.8277 19.6404C27.7464 19.2947 27.7057 18.8881 27.7057 18.4204C27.7057 17.9324 27.7464 17.5257 27.8277 17.2003C27.7464 16.8547 27.7057 16.448 27.7057 15.9803C27.7057 15.4923 27.7464 15.0856 27.8277 14.7603C27.7464 14.4146 27.7057 14.0079 27.7057 13.5402C27.7057 13.0522 27.7464 12.6455 27.8277 12.3202C27.7464 11.9745 27.7057 11.5679 27.7057 11.1002C27.7057 10.6122 27.7464 10.2055 27.8277 9.88014H27.0652C26.9839 9.53446 26.9432 9.12778 26.9432 8.6601C26.9432 8.17209 26.9839 7.76541 27.0652 7.44007H28.5902C28.6716 7.76541 28.7122 8.17209 28.7122 8.6601C28.7122 9.12778 28.6716 9.53446 28.5902 9.88014H29.3528C29.4341 10.2055 29.4748 10.6122 29.4748 11.1002C29.4748 11.5679 29.4341 11.9745 29.3528 12.3202H30.2678C30.3491 12.6455 30.3898 13.0522 30.3898 13.5402C30.3898 14.0079 30.3491 14.4146 30.2678 14.7603ZM25.4182 25.7406C25.4182 25.2526 25.4588 24.8459 25.5402 24.5205H27.0652C27.1465 24.8459 27.1872 25.2526 27.1872 25.7406C27.1872 26.2083 27.1465 26.6149 27.0652 26.9606H25.5402C25.4588 26.6149 25.4182 26.2083 25.4182 25.7406Z" fill="#121317"/>
<path d="M22.0326 15.7355C22.0326 16.081 21.9092 16.3771 21.6624 16.6239C21.4321 16.8542 21.1195 16.994 20.7247 17.0434L18.4544 17.3642L20.4779 18.45C20.7576 18.598 20.9714 18.779 21.1195 18.9929C21.2676 19.2067 21.3416 19.437 21.3416 19.6838C21.3416 19.9964 21.2347 20.2761 21.0208 20.5228C20.7576 20.8354 20.4368 20.9917 20.0584 20.9917C19.6142 20.9917 19.2276 20.7778 18.8986 20.3501L17.4673 18.5487L17.5413 20.8436C17.5578 21.3043 17.4426 21.6827 17.1958 21.9788C16.9655 22.2585 16.6447 22.3983 16.2334 22.3983C15.888 22.3983 15.5918 22.2749 15.3451 22.0281C15.0983 21.7814 14.9749 21.477 14.9749 21.1151C14.9749 20.9012 15.0243 20.6627 15.123 20.3995L15.962 18.2772L13.9878 19.4864C13.6588 19.6674 13.3627 19.7578 13.0995 19.7578C12.8198 19.7578 12.573 19.6838 12.3591 19.5358C12.1617 19.3877 12.0219 19.182 11.9396 18.9188C11.8903 18.7708 11.8656 18.6145 11.8656 18.45C11.8656 18.088 11.9725 17.7919 12.1864 17.5616C12.4167 17.3313 12.7375 17.1914 13.1488 17.1421L15.4931 16.8213L13.3956 15.7355C13.1324 15.6039 12.9267 15.4311 12.7787 15.2173C12.6306 15.0034 12.5566 14.7731 12.5566 14.5263C12.5566 14.1973 12.6635 13.9094 12.8774 13.6626C13.1077 13.35 13.4285 13.1937 13.8398 13.1937C14.2675 13.1937 14.6541 13.4158 14.9996 13.86L16.4309 15.6368L16.3568 13.3912C16.3404 12.9141 16.4473 12.5357 16.6776 12.256C16.9244 11.9599 17.2534 11.8118 17.6647 11.8118C18.0266 11.8118 18.3228 11.9352 18.5531 12.182C18.7999 12.4288 18.9232 12.7331 18.9232 13.095C18.9232 13.2925 18.8739 13.531 18.7752 13.8107L17.9115 15.9329L19.9103 14.7237C20.2558 14.5263 20.5602 14.4276 20.8234 14.4276C21.0866 14.4276 21.3169 14.5099 21.5143 14.6744C21.7282 14.8224 21.8763 15.0198 21.9585 15.2666C22.0079 15.4147 22.0326 15.571 22.0326 15.7355Z" fill="#33CB9A"/>
</svg>
