<svg width="12" height="9" viewBox="0 0 12 9" fill="none" xmlns="http://www.w3.org/2000/svg">
<path d="M2.46799 0.800008C2.46799 0.984008 2.45199 1.14401 2.41999 1.28001H1.81999C1.78799 1.14401 1.77199 0.984008 1.77199 0.800008C1.77199 0.608008 1.78799 0.448008 1.81999 0.320007H2.41999C2.45199 0.448008 2.46799 0.608008 2.46799 0.800008ZM1.81999 7.04001C1.85199 7.16801 1.86799 7.32801 1.86799 7.52001C1.86799 7.70401 1.85199 7.86401 1.81999 8.00001H1.21999C1.18799 7.86401 1.17199 7.70401 1.17199 7.52001C1.17199 7.32801 1.18799 7.16801 1.21999 7.04001H0.919993C0.887993 6.90401 0.871993 6.74401 0.871993 6.56001C0.871993 6.36801 0.887993 6.20801 0.919993 6.08001H0.559994C0.527993 5.94401 0.511993 5.78401 0.511993 5.60001C0.511993 5.40801 0.527993 5.24801 0.559994 5.12001C0.527993 4.98401 0.511993 4.82401 0.511993 4.64001C0.511993 4.44801 0.527993 4.28801 0.559994 4.16001C0.527993 4.02401 0.511993 3.86401 0.511993 3.68001C0.511993 3.48801 0.527993 3.32801 0.559994 3.20001H0.919993C0.887993 3.06401 0.871993 2.90401 0.871993 2.72001C0.871993 2.52801 0.887993 2.36801 0.919993 2.24001H1.21999C1.18799 2.10401 1.17199 1.94401 1.17199 1.76001C1.17199 1.56801 1.18799 1.40801 1.21999 1.28001H1.81999C1.85199 1.40801 1.86799 1.56801 1.86799 1.76001C1.86799 1.94401 1.85199 2.10401 1.81999 2.24001H1.51999C1.55199 2.36801 1.56799 2.52801 1.56799 2.72001C1.56799 2.90401 1.55199 3.06401 1.51999 3.20001C1.55199 3.32801 1.56799 3.48801 1.56799 3.68001C1.56799 3.86401 1.55199 4.02401 1.51999 4.16001C1.55199 4.28801 1.56799 4.44801 1.56799 4.64001C1.56799 4.82401 1.55199 4.98401 1.51999 5.12001C1.55199 5.24801 1.56799 5.40801 1.56799 5.60001C1.56799 5.78401 1.55199 5.94401 1.51999 6.08001C1.55199 6.20801 1.56799 6.36801 1.56799 6.56001C1.56799 6.74401 1.55199 6.90401 1.51999 7.04001H1.81999ZM2.41999 8.00001C2.45199 8.12801 2.46799 8.28801 2.46799 8.48001C2.46799 8.66401 2.45199 8.82401 2.41999 8.96001H1.81999C1.78799 8.82401 1.77199 8.66401 1.77199 8.48001C1.77199 8.28801 1.78799 8.12801 1.81999 8.00001H2.41999Z" fill="#121317"/>
<path d="M9.98 0.320007C10.012 0.448008 10.028 0.608008 10.028 0.800008C10.028 0.984008 10.012 1.14401 9.98 1.28001H9.38C9.348 1.14401 9.332 0.984008 9.332 0.800008C9.332 0.608008 9.348 0.448008 9.38 0.320007H9.98ZM11.24 4.16001C11.272 4.28801 11.288 4.44801 11.288 4.64001C11.288 4.82401 11.272 4.98401 11.24 5.12001C11.272 5.24801 11.288 5.40801 11.288 5.60001C11.288 5.78401 11.272 5.94401 11.24 6.08001H10.88C10.912 6.20801 10.928 6.36801 10.928 6.56001C10.928 6.74401 10.912 6.90401 10.88 7.04001H10.58C10.612 7.16801 10.628 7.32801 10.628 7.52001C10.628 7.70401 10.612 7.86401 10.58 8.00001H9.98C9.948 7.86401 9.932 7.70401 9.932 7.52001C9.932 7.32801 9.948 7.16801 9.98 7.04001H10.28C10.248 6.90401 10.232 6.74401 10.232 6.56001C10.232 6.36801 10.248 6.20801 10.28 6.08001C10.248 5.94401 10.232 5.78401 10.232 5.60001C10.232 5.40801 10.248 5.24801 10.28 5.12001C10.248 4.98401 10.232 4.82401 10.232 4.64001C10.232 4.44801 10.248 4.28801 10.28 4.16001C10.248 4.02401 10.232 3.86401 10.232 3.68001C10.232 3.48801 10.248 3.32801 10.28 3.20001C10.248 3.06401 10.232 2.90401 10.232 2.72001C10.232 2.52801 10.248 2.36801 10.28 2.24001H9.98C9.948 2.10401 9.932 1.94401 9.932 1.76001C9.932 1.56801 9.948 1.40801 9.98 1.28001H10.58C10.612 1.40801 10.628 1.56801 10.628 1.76001C10.628 1.94401 10.612 2.10401 10.58 2.24001H10.88C10.912 2.36801 10.928 2.52801 10.928 2.72001C10.928 2.90401 10.912 3.06401 10.88 3.20001H11.24C11.272 3.32801 11.288 3.48801 11.288 3.68001C11.288 3.86401 11.272 4.02401 11.24 4.16001ZM9.332 8.48001C9.332 8.28801 9.348 8.12801 9.38 8.00001H9.98C10.012 8.12801 10.028 8.28801 10.028 8.48001C10.028 8.66401 10.012 8.82401 9.98 8.96001H9.38C9.348 8.82401 9.332 8.66401 9.332 8.48001Z" fill="#121317"/>
<path d="M8 4.54369C8 4.67961 7.95146 4.79612 7.85437 4.8932C7.76375 4.98382 7.64078 5.03884 7.48544 5.05825L6.59223 5.18447L7.38835 5.61165C7.49838 5.6699 7.58252 5.7411 7.64078 5.82524C7.69903 5.90939 7.72816 6 7.72816 6.09709C7.72816 6.22006 7.68608 6.3301 7.60194 6.42718C7.49838 6.55016 7.37217 6.61165 7.2233 6.61165C7.04854 6.61165 6.89644 6.52751 6.76699 6.35922L6.20388 5.65049L6.23301 6.5534C6.23948 6.73463 6.19417 6.88349 6.09709 7C6.00647 7.11003 5.88026 7.16505 5.71845 7.16505C5.58252 7.16505 5.46602 7.11651 5.36893 7.01942C5.27184 6.92233 5.2233 6.80259 5.2233 6.66019C5.2233 6.57605 5.24272 6.4822 5.28155 6.37864L5.61165 5.54369L4.83495 6.01942C4.7055 6.09062 4.589 6.12621 4.48544 6.12621C4.3754 6.12621 4.27832 6.09709 4.19417 6.03883C4.1165 5.98058 4.06149 5.89968 4.02913 5.79612C4.00971 5.73786 4 5.67638 4 5.61165C4 5.46926 4.04207 5.35275 4.12621 5.26214C4.21683 5.17152 4.34304 5.1165 4.50485 5.09709L5.42718 4.97087L4.60194 4.54369C4.49838 4.49191 4.41748 4.42395 4.35922 4.33981C4.30097 4.25566 4.27184 4.16505 4.27184 4.06796C4.27184 3.93851 4.31392 3.82524 4.39806 3.72816C4.48867 3.60518 4.61489 3.54369 4.7767 3.54369C4.94498 3.54369 5.09709 3.63107 5.23301 3.80583L5.79612 4.50485L5.76699 3.62136C5.76052 3.43366 5.80259 3.28479 5.8932 3.17476C5.99029 3.05825 6.11974 3 6.28155 3C6.42395 3 6.54045 3.04854 6.63107 3.14563C6.72816 3.24272 6.7767 3.36246 6.7767 3.50485C6.7767 3.58252 6.75728 3.67638 6.71845 3.78641L6.37864 4.62136L7.16505 4.14563C7.30097 4.06796 7.42071 4.02913 7.52427 4.02913C7.62783 4.02913 7.71845 4.06149 7.79612 4.12621C7.88026 4.18447 7.93851 4.26214 7.97087 4.35922C7.99029 4.41748 8 4.47896 8 4.54369Z" fill="#33CB9A"/>
</svg>
