<svg width="50" height="10" viewBox="0 0 50 10" fill="none" xmlns="http://www.w3.org/2000/svg">
<path d="M49.2728 4.16001C49.3048 4.28801 49.3208 4.44801 49.3208 4.64001C49.3208 4.82401 49.3048 4.98401 49.2728 5.12001H48.3128C48.2808 4.98401 48.2648 4.82401 48.2648 4.64001C48.2648 4.44801 48.2808 4.28801 48.3128 4.16001H47.4728C47.5048 4.28801 47.5208 4.44801 47.5208 4.64001C47.5208 4.82401 47.5048 4.98401 47.4728 5.12001H47.1128C47.1448 5.24801 47.1608 5.40801 47.1608 5.60001C47.1608 5.78401 47.1448 5.94401 47.1128 6.08001C47.1448 6.20801 47.1608 6.36801 47.1608 6.56001C47.1608 6.74401 47.1448 6.90401 47.1128 7.04001H47.8328C47.8648 7.16801 47.8808 7.32801 47.8808 7.52001C47.8808 7.70401 47.8648 7.86401 47.8328 8.00001H45.4328C45.4008 7.86401 45.3848 7.70401 45.3848 7.52001C45.3848 7.32801 45.4008 7.16801 45.4328 7.04001H46.1528C46.1208 6.90401 46.1048 6.74401 46.1048 6.56001C46.1048 6.36801 46.1208 6.20801 46.1528 6.08001C46.1208 5.94401 46.1048 5.78401 46.1048 5.60001C46.1048 5.40801 46.1208 5.24801 46.1528 5.12001C46.1208 4.98401 46.1048 4.82401 46.1048 4.64001C46.1048 4.44801 46.1208 4.28801 46.1528 4.16001H45.4328C45.4008 4.02401 45.3848 3.86401 45.3848 3.68001C45.3848 3.48801 45.4008 3.32801 45.4328 3.20001H46.6328C46.6648 3.32801 46.6808 3.48801 46.6808 3.68001C46.6808 3.86401 46.6648 4.02401 46.6328 4.16001H47.1128C47.0808 4.02401 47.0648 3.86401 47.0648 3.68001C47.0648 3.48801 47.0808 3.32801 47.1128 3.20001H48.9128C48.9448 3.32801 48.9608 3.48801 48.9608 3.68001C48.9608 3.86401 48.9448 4.02401 48.9128 4.16001H49.2728Z" fill="#121317"/>
<path d="M44.7081 7.04001C44.7401 7.16801 44.7561 7.32801 44.7561 7.52001C44.7561 7.70401 44.7401 7.86401 44.7081 8.00001H43.7481C43.7161 7.86401 43.7001 7.70401 43.7001 7.52001C43.7001 7.32801 43.7161 7.16801 43.7481 7.04001H43.2681C43.2361 6.90401 43.2201 6.74401 43.2201 6.56001C43.2201 6.36801 43.2361 6.20801 43.2681 6.08001H41.8281C41.8601 6.20801 41.8761 6.36801 41.8761 6.56001C41.8761 6.74401 41.8601 6.90401 41.8281 7.04001H43.2681C43.3001 7.16801 43.3161 7.32801 43.3161 7.52001C43.3161 7.70401 43.3001 7.86401 43.2681 8.00001H41.3481C41.3161 7.86401 41.3001 7.70401 41.3001 7.52001C41.3001 7.32801 41.3161 7.16801 41.3481 7.04001H40.8681C40.8361 6.90401 40.8201 6.74401 40.8201 6.56001C40.8201 6.36801 40.8361 6.20801 40.8681 6.08001H41.3481C41.3161 5.94401 41.3001 5.78401 41.3001 5.60001C41.3001 5.40801 41.3161 5.24801 41.3481 5.12001H43.2681C43.2361 4.98401 43.2201 4.82401 43.2201 4.64001C43.2201 4.44801 43.2361 4.28801 43.2681 4.16001H41.5881C41.5561 4.02401 41.5401 3.86401 41.5401 3.68001C41.5401 3.48801 41.5561 3.32801 41.5881 3.20001H43.7481C43.7801 3.32801 43.7961 3.48801 43.7961 3.68001C43.7961 3.86401 43.7801 4.02401 43.7481 4.16001H44.2281C44.2601 4.28801 44.2761 4.44801 44.2761 4.64001C44.2761 4.82401 44.2601 4.98401 44.2281 5.12001C44.2601 5.24801 44.2761 5.40801 44.2761 5.60001C44.2761 5.78401 44.2601 5.94401 44.2281 6.08001C44.2601 6.20801 44.2761 6.36801 44.2761 6.56001C44.2761 6.74401 44.2601 6.90401 44.2281 7.04001H44.7081Z" fill="#121317"/>
<path d="M39.6634 7.04C39.6954 7.168 39.7114 7.328 39.7114 7.52C39.7114 7.704 39.6954 7.864 39.6634 8H37.7434C37.7114 7.864 37.6954 7.704 37.6954 7.52C37.6954 7.328 37.7114 7.168 37.7434 7.04H37.2634C37.2314 6.904 37.2154 6.744 37.2154 6.56C37.2154 6.368 37.2314 6.208 37.2634 6.08C37.2314 5.944 37.2154 5.784 37.2154 5.6C37.2154 5.408 37.2314 5.248 37.2634 5.12C37.2314 4.984 37.2154 4.824 37.2154 4.64C37.2154 4.448 37.2314 4.288 37.2634 4.16H36.3034C36.2714 4.024 36.2554 3.864 36.2554 3.68C36.2554 3.488 36.2714 3.328 36.3034 3.2H37.2634C37.2314 3.064 37.2154 2.904 37.2154 2.72C37.2154 2.528 37.2314 2.368 37.2634 2.24C37.2314 2.104 37.2154 1.944 37.2154 1.76C37.2154 1.568 37.2314 1.408 37.2634 1.28H38.2234C38.2554 1.408 38.2714 1.568 38.2714 1.76C38.2714 1.944 38.2554 2.104 38.2234 2.24C38.2554 2.368 38.2714 2.528 38.2714 2.72C38.2714 2.904 38.2554 3.064 38.2234 3.2H39.6634C39.6954 3.328 39.7114 3.488 39.7114 3.68C39.7114 3.864 39.6954 4.024 39.6634 4.16H38.2234C38.2554 4.288 38.2714 4.448 38.2714 4.64C38.2714 4.824 38.2554 4.984 38.2234 5.12C38.2554 5.248 38.2714 5.408 38.2714 5.6C38.2714 5.784 38.2554 5.944 38.2234 6.08C38.2554 6.208 38.2714 6.368 38.2714 6.56C38.2714 6.744 38.2554 6.904 38.2234 7.04H39.6634Z" fill="#121317"/>
<path d="M35.3868 6.56001C35.3868 6.74401 35.3708 6.90401 35.3388 7.04001H34.8588C34.8908 7.16801 34.9068 7.32801 34.9068 7.52001C34.9068 7.70401 34.8908 7.86401 34.8588 8.00001H32.2188C32.1868 7.86401 32.1708 7.70401 32.1708 7.52001C32.1708 7.32801 32.1868 7.16801 32.2188 7.04001H34.3788C34.3468 6.90401 34.3308 6.74401 34.3308 6.56001C34.3308 6.36801 34.3468 6.20801 34.3788 6.08001H32.4588C32.4268 5.94401 32.4108 5.78401 32.4108 5.60001C32.4108 5.40801 32.4268 5.24801 32.4588 5.12001H31.9788C31.9468 4.98401 31.9308 4.82401 31.9308 4.64001C31.9308 4.44801 31.9468 4.28801 31.9788 4.16001H32.4588C32.4268 4.02401 32.4108 3.86401 32.4108 3.68001C32.4108 3.48801 32.4268 3.32801 32.4588 3.20001H35.0988C35.1308 3.32801 35.1468 3.48801 35.1468 3.68001C35.1468 3.86401 35.1308 4.02401 35.0988 4.16001H32.9388C32.9708 4.28801 32.9868 4.44801 32.9868 4.64001C32.9868 4.82401 32.9708 4.98401 32.9388 5.12001H34.8588C34.8908 5.24801 34.9068 5.40801 34.9068 5.60001C34.9068 5.78401 34.8908 5.94401 34.8588 6.08001H35.3388C35.3708 6.20801 35.3868 6.36801 35.3868 6.56001Z" fill="#121317"/>
<path d="M28.1341 6.08C28.1661 6.208 28.1821 6.368 28.1821 6.56C28.1821 6.744 28.1661 6.904 28.1341 7.04H27.6541C27.6861 7.168 27.7021 7.328 27.7021 7.52C27.7021 7.704 27.6861 7.864 27.6541 8H27.1741C27.1421 7.864 27.1261 7.704 27.1261 7.52C27.1261 7.328 27.1421 7.168 27.1741 7.04C27.1421 6.904 27.1261 6.744 27.1261 6.56C27.1261 6.368 27.1421 6.208 27.1741 6.08C27.1421 5.944 27.1261 5.784 27.1261 5.6C27.1261 5.408 27.1421 5.248 27.1741 5.12C27.1421 4.984 27.1261 4.824 27.1261 4.64C27.1261 4.448 27.1421 4.288 27.1741 4.16C27.1421 4.024 27.1261 3.864 27.1261 3.68C27.1261 3.488 27.1421 3.328 27.1741 3.2C27.1421 3.064 27.1261 2.904 27.1261 2.72C27.1261 2.528 27.1421 2.368 27.1741 2.24C27.1421 2.104 27.1261 1.944 27.1261 1.76C27.1261 1.568 27.1421 1.408 27.1741 1.28H28.1341C28.1661 1.408 28.1821 1.568 28.1821 1.76C28.1821 1.944 28.1661 2.104 28.1341 2.24C28.1661 2.368 28.1821 2.528 28.1821 2.72C28.1821 2.904 28.1661 3.064 28.1341 3.2C28.1661 3.328 28.1821 3.488 28.1821 3.68C28.1821 3.864 28.1661 4.024 28.1341 4.16H28.6141C28.6461 4.288 28.6621 4.448 28.6621 4.64C28.6621 4.824 28.6461 4.984 28.6141 5.12H28.1341C28.1661 5.248 28.1821 5.408 28.1821 5.6C28.1821 5.784 28.1661 5.944 28.1341 6.08ZM31.0621 5.6C31.0621 5.784 31.0461 5.944 31.0141 6.08H30.5341C30.5661 6.208 30.5821 6.368 30.5821 6.56C30.5821 6.744 30.5661 6.904 30.5341 7.04H29.5741C29.5421 6.904 29.5261 6.744 29.5261 6.56C29.5261 6.368 29.5421 6.208 29.5741 6.08H30.0541C30.0221 5.944 30.0061 5.784 30.0061 5.6C30.0061 5.408 30.0221 5.248 30.0541 5.12H29.5741C29.5421 4.984 29.5261 4.824 29.5261 4.64C29.5261 4.448 29.5421 4.288 29.5741 4.16H28.6141C28.5821 4.024 28.5661 3.864 28.5661 3.68C28.5661 3.488 28.5821 3.328 28.6141 3.2H30.0541C30.0861 3.328 30.1021 3.488 30.1021 3.68C30.1021 3.864 30.0861 4.024 30.0541 4.16H30.5341C30.5661 4.288 30.5821 4.448 30.5821 4.64C30.5821 4.824 30.5661 4.984 30.5341 5.12H31.0141C31.0461 5.248 31.0621 5.408 31.0621 5.6ZM28.0861 7.52C28.0861 7.328 28.1021 7.168 28.1341 7.04H29.5741C29.6061 7.168 29.6221 7.328 29.6221 7.52C29.6221 7.704 29.6061 7.864 29.5741 8H28.1341C28.1021 7.864 28.0861 7.704 28.0861 7.52Z" fill="#121317"/>
<path d="M26.4974 5.60001C26.4974 5.78401 26.4814 5.94401 26.4494 6.08001H26.0894C26.1214 6.20801 26.1374 6.36801 26.1374 6.56001C26.1374 6.74401 26.1214 6.90401 26.0894 7.04001H25.4894C25.5214 7.16801 25.5374 7.32801 25.5374 7.52001C25.5374 7.70401 25.5214 7.86401 25.4894 8.00001H23.5694C23.5374 7.86401 23.5214 7.70401 23.5214 7.52001C23.5214 7.32801 23.5374 7.16801 23.5694 7.04001H22.9694C22.9374 6.90401 22.9214 6.74401 22.9214 6.56001C22.9214 6.36801 22.9374 6.20801 22.9694 6.08001H22.6094C22.5774 5.94401 22.5614 5.78401 22.5614 5.60001C22.5614 5.40801 22.5774 5.24801 22.6094 5.12001H22.9694C22.9374 4.98401 22.9214 4.82401 22.9214 4.64001C22.9214 4.44801 22.9374 4.28801 22.9694 4.16001H23.5694C23.5374 4.02401 23.5214 3.86401 23.5214 3.68001C23.5214 3.48801 23.5374 3.32801 23.5694 3.20001H25.4894C25.5214 3.32801 25.5374 3.48801 25.5374 3.68001C25.5374 3.86401 25.5214 4.02401 25.4894 4.16001H26.0894C26.1214 4.28801 26.1374 4.44801 26.1374 4.64001C26.1374 4.82401 26.1214 4.98401 26.0894 5.12001H26.4494C26.4814 5.24801 26.4974 5.40801 26.4974 5.60001ZM25.4894 6.08001C25.4574 5.94401 25.4414 5.78401 25.4414 5.60001C25.4414 5.40801 25.4574 5.24801 25.4894 5.12001H25.1294C25.0974 4.98401 25.0814 4.82401 25.0814 4.64001C25.0814 4.44801 25.0974 4.28801 25.1294 4.16001H23.9294C23.9614 4.28801 23.9774 4.44801 23.9774 4.64001C23.9774 4.82401 23.9614 4.98401 23.9294 5.12001H23.5694C23.6014 5.24801 23.6174 5.40801 23.6174 5.60001C23.6174 5.78401 23.6014 5.94401 23.5694 6.08001H23.9294C23.9614 6.20801 23.9774 6.36801 23.9774 6.56001C23.9774 6.74401 23.9614 6.90401 23.9294 7.04001H25.1294C25.0974 6.90401 25.0814 6.74401 25.0814 6.56001C25.0814 6.36801 25.0974 6.20801 25.1294 6.08001H25.4894Z" fill="#121317"/>
<path d="M21.4047 7.04C21.4367 7.168 21.4527 7.328 21.4527 7.52C21.4527 7.704 21.4367 7.864 21.4047 8H18.5247C18.4927 7.864 18.4767 7.704 18.4767 7.52C18.4767 7.328 18.4927 7.168 18.5247 7.04H19.4847C19.4527 6.904 19.4367 6.744 19.4367 6.56C19.4367 6.368 19.4527 6.208 19.4847 6.08C19.4527 5.944 19.4367 5.784 19.4367 5.6C19.4367 5.408 19.4527 5.248 19.4847 5.12C19.4527 4.984 19.4367 4.824 19.4367 4.64C19.4367 4.448 19.4527 4.288 19.4847 4.16C19.4527 4.024 19.4367 3.864 19.4367 3.68C19.4367 3.488 19.4527 3.328 19.4847 3.2C19.4527 3.064 19.4367 2.904 19.4367 2.72C19.4367 2.528 19.4527 2.368 19.4847 2.24H18.7647C18.7327 2.104 18.7167 1.944 18.7167 1.76C18.7167 1.568 18.7327 1.408 18.7647 1.28H20.4447C20.4767 1.408 20.4927 1.568 20.4927 1.76C20.4927 1.944 20.4767 2.104 20.4447 2.24C20.4767 2.368 20.4927 2.528 20.4927 2.72C20.4927 2.904 20.4767 3.064 20.4447 3.2C20.4767 3.328 20.4927 3.488 20.4927 3.68C20.4927 3.864 20.4767 4.024 20.4447 4.16C20.4767 4.288 20.4927 4.448 20.4927 4.64C20.4927 4.824 20.4767 4.984 20.4447 5.12C20.4767 5.248 20.4927 5.408 20.4927 5.6C20.4927 5.784 20.4767 5.944 20.4447 6.08C20.4767 6.208 20.4927 6.368 20.4927 6.56C20.4927 6.744 20.4767 6.904 20.4447 7.04H21.4047Z" fill="#121317"/>
<path d="M17.32 4.16001C17.352 4.28801 17.368 4.44801 17.368 4.64001C17.368 4.82401 17.352 4.98401 17.32 5.12001C17.352 5.24801 17.368 5.40801 17.368 5.60001C17.368 5.78401 17.352 5.94401 17.32 6.08001C17.352 6.20801 17.368 6.36801 17.368 6.56001C17.368 6.74401 17.352 6.90401 17.32 7.04001C17.352 7.16801 17.368 7.32801 17.368 7.52001C17.368 7.70401 17.352 7.86401 17.32 8.00001H16.84C16.872 8.12801 16.888 8.28801 16.888 8.48001C16.888 8.66401 16.872 8.82401 16.84 8.96001H16.36C16.392 9.08801 16.408 9.24801 16.408 9.44001C16.408 9.62401 16.392 9.78401 16.36 9.92001H14.44C14.408 9.78401 14.392 9.62401 14.392 9.44001C14.392 9.24801 14.408 9.08801 14.44 8.96001H15.88C15.848 8.82401 15.832 8.66401 15.832 8.48001C15.832 8.28801 15.848 8.12801 15.88 8.00001H16.36C16.328 7.86401 16.312 7.70401 16.312 7.52001C16.312 7.32801 16.328 7.16801 16.36 7.04001H15.88C15.848 6.90401 15.832 6.74401 15.832 6.56001C15.832 6.36801 15.848 6.20801 15.88 6.08001H16.36C16.328 5.94401 16.312 5.78401 16.312 5.60001C16.312 5.40801 16.328 5.24801 16.36 5.12001C16.328 4.98401 16.312 4.82401 16.312 4.64001C16.312 4.44801 16.328 4.28801 16.36 4.16001H14.8C14.832 4.28801 14.848 4.44801 14.848 4.64001C14.848 4.82401 14.832 4.98401 14.8 5.12001H14.44C14.472 5.24801 14.488 5.40801 14.488 5.60001C14.488 5.78401 14.472 5.94401 14.44 6.08001H14.8C14.832 6.20801 14.848 6.36801 14.848 6.56001C14.848 6.74401 14.832 6.90401 14.8 7.04001H15.88C15.912 7.16801 15.928 7.32801 15.928 7.52001C15.928 7.70401 15.912 7.86401 15.88 8.00001H14.44C14.408 7.86401 14.392 7.70401 14.392 7.52001C14.392 7.32801 14.408 7.16801 14.44 7.04001H13.84C13.808 6.90401 13.792 6.74401 13.792 6.56001C13.792 6.36801 13.808 6.20801 13.84 6.08001H13.48C13.448 5.94401 13.432 5.78401 13.432 5.60001C13.432 5.40801 13.448 5.24801 13.48 5.12001H13.84C13.808 4.98401 13.792 4.82401 13.792 4.64001C13.792 4.44801 13.808 4.28801 13.84 4.16001H14.44C14.408 4.02401 14.392 3.86401 14.392 3.68001C14.392 3.48801 14.408 3.32801 14.44 3.20001H17.32C17.352 3.32801 17.368 3.48801 17.368 3.68001C17.368 3.86401 17.352 4.02401 17.32 4.16001Z" fill="#121317"/>
<path d="M2.46799 0.800008C2.46799 0.984008 2.45199 1.14401 2.41999 1.28001H1.81999C1.78799 1.14401 1.77199 0.984008 1.77199 0.800008C1.77199 0.608008 1.78799 0.448008 1.81999 0.320007H2.41999C2.45199 0.448008 2.46799 0.608008 2.46799 0.800008ZM1.81999 7.04001C1.85199 7.16801 1.86799 7.32801 1.86799 7.52001C1.86799 7.70401 1.85199 7.86401 1.81999 8.00001H1.21999C1.18799 7.86401 1.17199 7.70401 1.17199 7.52001C1.17199 7.32801 1.18799 7.16801 1.21999 7.04001H0.919993C0.887993 6.90401 0.871993 6.74401 0.871993 6.56001C0.871993 6.36801 0.887993 6.20801 0.919993 6.08001H0.559994C0.527993 5.94401 0.511993 5.78401 0.511993 5.60001C0.511993 5.40801 0.527993 5.24801 0.559994 5.12001C0.527993 4.98401 0.511993 4.82401 0.511993 4.64001C0.511993 4.44801 0.527993 4.28801 0.559994 4.16001C0.527993 4.02401 0.511993 3.86401 0.511993 3.68001C0.511993 3.48801 0.527993 3.32801 0.559994 3.20001H0.919993C0.887993 3.06401 0.871993 2.90401 0.871993 2.72001C0.871993 2.52801 0.887993 2.36801 0.919993 2.24001H1.21999C1.18799 2.10401 1.17199 1.94401 1.17199 1.76001C1.17199 1.56801 1.18799 1.40801 1.21999 1.28001H1.81999C1.85199 1.40801 1.86799 1.56801 1.86799 1.76001C1.86799 1.94401 1.85199 2.10401 1.81999 2.24001H1.51999C1.55199 2.36801 1.56799 2.52801 1.56799 2.72001C1.56799 2.90401 1.55199 3.06401 1.51999 3.20001C1.55199 3.32801 1.56799 3.48801 1.56799 3.68001C1.56799 3.86401 1.55199 4.02401 1.51999 4.16001C1.55199 4.28801 1.56799 4.44801 1.56799 4.64001C1.56799 4.82401 1.55199 4.98401 1.51999 5.12001C1.55199 5.24801 1.56799 5.40801 1.56799 5.60001C1.56799 5.78401 1.55199 5.94401 1.51999 6.08001C1.55199 6.20801 1.56799 6.36801 1.56799 6.56001C1.56799 6.74401 1.55199 6.90401 1.51999 7.04001H1.81999ZM2.41999 8.00001C2.45199 8.12801 2.46799 8.28801 2.46799 8.48001C2.46799 8.66401 2.45199 8.82401 2.41999 8.96001H1.81999C1.78799 8.82401 1.77199 8.66401 1.77199 8.48001C1.77199 8.28801 1.78799 8.12801 1.81999 8.00001H2.41999Z" fill="#121317"/>
<path d="M9.98 0.320007C10.012 0.448008 10.028 0.608008 10.028 0.800008C10.028 0.984008 10.012 1.14401 9.98 1.28001H9.38C9.348 1.14401 9.332 0.984008 9.332 0.800008C9.332 0.608008 9.348 0.448008 9.38 0.320007H9.98ZM11.24 4.16001C11.272 4.28801 11.288 4.44801 11.288 4.64001C11.288 4.82401 11.272 4.98401 11.24 5.12001C11.272 5.24801 11.288 5.40801 11.288 5.60001C11.288 5.78401 11.272 5.94401 11.24 6.08001H10.88C10.912 6.20801 10.928 6.36801 10.928 6.56001C10.928 6.74401 10.912 6.90401 10.88 7.04001H10.58C10.612 7.16801 10.628 7.32801 10.628 7.52001C10.628 7.70401 10.612 7.86401 10.58 8.00001H9.98C9.948 7.86401 9.932 7.70401 9.932 7.52001C9.932 7.32801 9.948 7.16801 9.98 7.04001H10.28C10.248 6.90401 10.232 6.74401 10.232 6.56001C10.232 6.36801 10.248 6.20801 10.28 6.08001C10.248 5.94401 10.232 5.78401 10.232 5.60001C10.232 5.40801 10.248 5.24801 10.28 5.12001C10.248 4.98401 10.232 4.82401 10.232 4.64001C10.232 4.44801 10.248 4.28801 10.28 4.16001C10.248 4.02401 10.232 3.86401 10.232 3.68001C10.232 3.48801 10.248 3.32801 10.28 3.20001C10.248 3.06401 10.232 2.90401 10.232 2.72001C10.232 2.52801 10.248 2.36801 10.28 2.24001H9.98C9.948 2.10401 9.932 1.94401 9.932 1.76001C9.932 1.56801 9.948 1.40801 9.98 1.28001H10.58C10.612 1.40801 10.628 1.56801 10.628 1.76001C10.628 1.94401 10.612 2.10401 10.58 2.24001H10.88C10.912 2.36801 10.928 2.52801 10.928 2.72001C10.928 2.90401 10.912 3.06401 10.88 3.20001H11.24C11.272 3.32801 11.288 3.48801 11.288 3.68001C11.288 3.86401 11.272 4.02401 11.24 4.16001ZM9.332 8.48001C9.332 8.28801 9.348 8.12801 9.38 8.00001H9.98C10.012 8.12801 10.028 8.28801 10.028 8.48001C10.028 8.66401 10.012 8.82401 9.98 8.96001H9.38C9.348 8.82401 9.332 8.66401 9.332 8.48001Z" fill="#121317"/>
<path d="M8 4.54369C8 4.67961 7.95146 4.79612 7.85437 4.8932C7.76375 4.98382 7.64078 5.03884 7.48544 5.05825L6.59223 5.18447L7.38835 5.61165C7.49838 5.6699 7.58252 5.7411 7.64078 5.82524C7.69903 5.90939 7.72816 6 7.72816 6.09709C7.72816 6.22006 7.68608 6.3301 7.60194 6.42718C7.49838 6.55016 7.37217 6.61165 7.2233 6.61165C7.04854 6.61165 6.89644 6.52751 6.76699 6.35922L6.20388 5.65049L6.23301 6.5534C6.23948 6.73463 6.19417 6.88349 6.09709 7C6.00647 7.11003 5.88026 7.16505 5.71845 7.16505C5.58252 7.16505 5.46602 7.11651 5.36893 7.01942C5.27184 6.92233 5.2233 6.80259 5.2233 6.66019C5.2233 6.57605 5.24272 6.4822 5.28155 6.37864L5.61165 5.54369L4.83495 6.01942C4.7055 6.09062 4.589 6.12621 4.48544 6.12621C4.3754 6.12621 4.27832 6.09709 4.19417 6.03883C4.1165 5.98058 4.06149 5.89968 4.02913 5.79612C4.00971 5.73786 4 5.67638 4 5.61165C4 5.46926 4.04207 5.35275 4.12621 5.26214C4.21683 5.17152 4.34304 5.1165 4.50485 5.09709L5.42718 4.97087L4.60194 4.54369C4.49838 4.49191 4.41748 4.42395 4.35922 4.33981C4.30097 4.25566 4.27184 4.16505 4.27184 4.06796C4.27184 3.93851 4.31392 3.82524 4.39806 3.72816C4.48867 3.60518 4.61489 3.54369 4.7767 3.54369C4.94498 3.54369 5.09709 3.63107 5.23301 3.80583L5.79612 4.50485L5.76699 3.62136C5.76052 3.43366 5.80259 3.28479 5.8932 3.17476C5.99029 3.05825 6.11974 3 6.28155 3C6.42395 3 6.54045 3.04854 6.63107 3.14563C6.72816 3.24272 6.7767 3.36246 6.7767 3.50485C6.7767 3.58252 6.75728 3.67638 6.71845 3.78641L6.37864 4.62136L7.16505 4.14563C7.30097 4.06796 7.42071 4.02913 7.52427 4.02913C7.62783 4.02913 7.71845 4.06149 7.79612 4.12621C7.88026 4.18447 7.93851 4.26214 7.97087 4.35922C7.99029 4.41748 8 4.47896 8 4.54369Z" fill="#33CB9A"/>
</svg>
